Coordinates
version=1
nRows=4
nColumns=124
inDegrees=yes

Units are S.I. units (second, meters, Newtons, ...)
If the header above contains a line with 'inDegrees', this indicates whether rotational values are in degrees (yes) or radians (no).

endheader 
time	pelvis_tilt	pelvis_list	pelvis_rotation	pelvis_tx	pelvis_ty	pelvis_tz	hip_flexion_l	hip_adduction_l	hip_rotation_l	hip_flexion_r	hip_adduction_r	hip_rotation_r	knee_angle_l	knee_angle_r	ankle_angle_l	ankle_angle_r	subtalar_angle_l	subtalar_angle_r	mtp_angle_l	mtp_angle_r	lumbar_extension	lumbar_bending	lumbar_rotation	arm_flex_l	arm_add_l	arm_rot_l	arm_flex_r	arm_add_r	arm_rot_r	elbow_flex_l	elbow_flex_r	glut_med1_l/activation	glut_med2_l/activation	glut_med3_l/activation	glut_min1_l/activation	glut_min2_l/activation	glut_min3_l/activation	semimem_l/activation	semiten_l/activation	bifemlh_l/activation	bifemsh_l/activation	sar_l/activation	add_long_l/activation	add_brev_l/activation	add_mag1_l/activation	add_mag2_l/activation	add_mag3_l/activation	tfl_l/activation	pect_l/activation	grac_l/activation	glut_max1_l/activation	glut_max2_l/activation	glut_max3_l/activation	iliacus_l/activation	psoas_l/activation	quad_fem_l/activation	gem_l/activation	peri_l/activation	rect_fem_l/activation	vas_med_l/activation	vas_int_l/activation	vas_lat_l/activation	med_gas_l/activation	lat_gas_l/activation	soleus_l/activation	tib_post_l/activation	flex_dig_l/activation	flex_hal_l/activation	tib_ant_l/activation	per_brev_l/activation	per_long_l/activation	per_tert_l/activation	ext_dig_l/activation	ext_hal_l/activation	ercspn_l/activation	intobl_l/activation	extobl_l/activation	glut_med1_r/activation	glut_med2_r/activation	glut_med3_r/activation	glut_min1_r/activation	glut_min2_r/activation	glut_min3_r/activation	semimem_r/activation	semiten_r/activation	bifemlh_r/activation	bifemsh_r/activation	sar_r/activation	add_long_r/activation	add_brev_r/activation	add_mag1_r/activation	add_mag2_r/activation	add_mag3_r/activation	tfl_r/activation	pect_r/activation	grac_r/activation	glut_max1_r/activation	glut_max2_r/activation	glut_max3_r/activation	iliacus_r/activation	psoas_r/activation	quad_fem_r/activation	gem_r/activation	peri_r/activation	rect_fem_r/activation	vas_med_r/activation	vas_int_r/activation	vas_lat_r/activation	med_gas_r/activation	lat_gas_r/activation	soleus_r/activation	tib_post_r/activation	flex_dig_r/activation	flex_hal_r/activation	tib_ant_r/activation	per_brev_r/activation	per_long_r/activation	per_tert_r/activation	ext_dig_r/activation	ext_hal_r/activation	ercspn_r/activation	intobl_r/activation	extobl_r/activation	
          0.83432779	         -6.36469579	          3.26548595	         -5.71496675	          0.53581391	          1.00039905	          0.01216334	         31.37098966	          4.94304669	          5.04882622	         -5.16557224	          1.09229874	         13.14959153	        -13.60355134	         -3.99317904	          7.59202875	         10.20647535	         -4.39160813	         -8.41220516	          0.17988781	         17.94401638	          1.49299311	         -0.60728670	          0.95359740	          2.97033015	        -13.46342950	         19.34887625	         -2.97013076	        -13.46348438	         19.34832786	         34.30678421	         28.53178950	          0.05000388	          0.05000474	          0.05000517	          0.05001379	          0.05001121	          0.05000961	          0.05289494	          0.05766091	          0.05002194	          0.06396627	          0.05007038	          0.13367728	          0.23149318	          0.15083919	          0.11278596	          0.05001872	          0.05002735	          0.05016392	          0.12363704	          0.05000568	          0.05000450	          0.05002182	          0.19243931	          0.17906375	          0.13325531	          0.05005025	          0.05000821	          0.05000458	          0.05000255	          0.05000247	          0.05000187	          0.05004187	          0.05003742	          0.05000044	          0.05692026	          0.05002871	          0.05252692	          0.39212960	          0.18465674	          0.20133488	          0.06869075	          0.41927303	          0.10089249	          0.06285522	          0.17027477	          0.10836720	          0.49771303	          0.38079730	          0.30040587	          0.35411755	          0.37084155	          0.36526306	          0.05000692	          0.05000630	          0.05000333	          0.10264575	          0.12777714	          0.05000241	          0.05000318	          0.05000645	          0.05001420	          0.05000705	          0.38454706	          0.05001139	          0.05000936	          0.06746024	          0.05004953	          0.05000572	          0.31272639	          0.34746077	          0.05000590	          0.05004178	          0.28947919	          0.11303291	          0.05001161	          0.05001088	          0.05000998	          0.42229799	          0.46371026	          0.29140756	          0.38853387	          0.20215316	          0.19160536	          0.06798024	          0.05000663	          0.05000318	          0.05002818	          0.05001750	          0.05007854	          0.05000043	          0.05000055	          0.05000096	
          0.85101434	         -6.40313348	          3.22256697	         -5.75921559	          0.54920265	          0.99817963	          0.01136598	         31.11507622	          5.17900951	          5.53333712	         -5.69677729	          1.04458934	         12.63977229	        -13.14944601	         -4.47299105	          7.23066635	         10.49193310	         -4.83741208	         -7.92896858	          0.19734673	         19.13448550	          1.64980714	         -0.75356995	          1.52944784	          2.07698155	        -13.46344775	         19.34774884	         -2.79107610	        -13.46379342	         19.34888949	         32.33283539	         29.55727830	          0.05000480	          0.05000468	          0.05000444	          0.05001549	          0.05001131	          0.05001037	          0.06185468	          0.05001391	          0.05381262	          0.05005081	          0.05002558	          0.16583830	          0.27080808	          0.17180941	          0.13301408	          0.06144647	          0.05000986	          0.05022221	          0.09992450	          0.05000583	          0.05000484	          0.07156304	          0.15056770	          0.14010215	          0.10687509	          0.05003172	          0.05001723	          0.05414805	          0.06469333	          0.06456791	          0.05820472	          0.05000474	          0.05000477	          0.05412774	          0.05000063	          0.05000473	          0.05000296	          0.45123418	          0.23183813	          0.16946616	          0.14471695	          0.48237614	          0.22556385	          0.06479466	          0.17090797	          0.08479137	          0.46723145	          0.36103812	          0.28622488	          0.28396142	          0.35151065	          0.32935479	          0.05000531	          0.05000416	          0.05000319	          0.09319292	          0.15853744	          0.05000300	          0.05000309	          0.05000629	          0.05001308	          0.05000525	          0.33432809	          0.05001379	          0.05001138	          0.06462867	          0.05012585	          0.05000575	          0.33802498	          0.35248362	          0.05021585	          0.05203069	          0.24502056	          0.11746926	          0.05001073	          0.05000997	          0.05000923	          0.42247907	          0.47320505	          0.31299832	          0.39430245	          0.22352824	          0.21884676	          0.05319000	          0.05000343	          0.05000298	          0.05000912	          0.05000348	          0.05001444	          0.05000062	          0.05000045	          0.05000112	
          0.86770090	         -6.43683604	          3.18498228	         -5.78675337	          0.56314198	          0.99596225	          0.01050618	         30.72272435	          5.45699908	          6.03093722	         -6.16477583	          1.00609363	         12.06641840	        -13.15587152	         -5.13749075	          6.62624842	         10.74956869	         -5.31678731	         -7.43621286	          0.23355224	         20.41984841	          1.83624599	         -0.92378831	          2.10926178	          1.07396323	        -13.46420452	         19.34890479	         -2.71300278	        -13.46358560	         19.34839468	         30.40026757	         30.61977310	          0.05000107	          0.05000167	          0.05000208	          0.05000493	          0.05000411	          0.05000319	          0.05000129	          0.05000448	          0.05000150	          0.05000383	          0.05001937	          0.13000731	          0.21189647	          0.17005456	          0.15093125	          0.06647790	          0.05000945	          0.06195074	          0.10545930	          0.05000200	          0.05000168	          0.07930028	          0.11780667	          0.10961848	          0.14642321	          0.05004855	          0.05000239	          0.08168478	          0.10516609	          0.10979098	          0.10000360	          0.05000034	          0.05000076	          0.05000010	          0.05000539	          0.05001522	          0.05001812	          0.48668313	          0.25781242	          0.19636311	          0.21614961	          0.46715624	          0.17648485	          0.06390853	          0.13519658	          0.06983292	          0.43879475	          0.32855305	          0.25022087	          0.24238352	          0.29190353	          0.31428765	          0.05000727	          0.05000586	          0.05000340	          0.08180877	          0.12406296	          0.05000361	          0.05000467	          0.05000871	          0.05001808	          0.05000802	          0.33330372	          0.05001645	          0.05001362	          0.05060128	          0.05002500	          0.05000757	          0.28383077	          0.32105519	          0.05001137	          0.05006866	          0.22849144	          0.14518193	          0.05001107	          0.05001038	          0.05000967	          0.41296079	          0.47027709	          0.32924181	          0.39851824	          0.24210553	          0.24003791	          0.05000228	          0.05002123	          0.05000690	          0.05001707	          0.05000478	          0.05001302	          0.05000041	          0.05000076	          0.05000062	
          0.88438746	         -6.46524282	          3.13723615	         -5.79909146	          0.57763552	          0.99382887	          0.00960129	         30.12715929	          5.71679799	          6.54168465	         -6.59421619	          0.98510308	         11.42880542	        -13.43395646	         -5.93689853	          6.17158190	         10.91750062	         -5.83833763	         -6.93355421	          0.18708143	         21.77533833	          2.05580197	         -1.09396234	          2.68909569	         -0.04278166	        -13.46355962	         19.34402703	         -2.74030880	        -13.46457772	         19.34837829	         28.52174591	         31.73105298	          0.05692119	          0.05001206	          0.05001216	          0.05001522	          0.05001528	          0.05002518	          0.05337151	          0.05014717	          0.05017229	          0.05494599	          0.05002303	          0.10172067	          0.16578994	          0.13305375	          0.11809224	          0.05206749	          0.05002313	          0.05006119	          0.08251837	          0.05005663	          0.05557385	          0.06807487	          0.09217309	          0.08576661	          0.11456451	          0.05005750	          0.05010542	          0.06391110	          0.08228390	          0.08590239	          0.07824447	          0.05162285	          0.05345995	          0.05514758	          0.05000326	          0.05000820	          0.05001020	          0.52660795	          0.26413756	          0.18039157	          0.16911854	          0.50969068	          0.13808699	          0.05000341	          0.16576284	          0.05463817	          0.40209777	          0.27306373	          0.19578064	          0.22910000	          0.24892722	          0.24591620	          0.05001505	          0.05000935	          0.05000489	          0.07578311	          0.10062276	          0.05000375	          0.05000436	          0.05000871	          0.05001792	          0.05000961	          0.27552749	          0.05001562	          0.05001478	          0.05029341	          0.05003804	          0.05000879	          0.24213447	          0.33429890	          0.05001025	          0.05004706	          0.17877747	          0.15099961	          0.05000737	          0.05000682	          0.05000640	          0.39920712	          0.46421270	          0.34070852	          0.40522230	          0.26995550	          0.26952553	          0.05000258	          0.05000214	          0.05000112	          0.05000577	          0.05000192	          0.05000855	          0.05000063	          0.05000040	          0.05000199	
